# xmcd
#
# Track frame offsets:
#	150
#	13330
#	27568
#	41424
#	55731
#	70330
#	84496
#	98060
#	110064
#	122104
#	135940
#	148975
#	161668
#	173735
#	189012
#	203129
#	215471
#	227476
#	242246
#	257170
#	271658
#	285397
#	297664
#	311165
#	325166
#
# Disc length: 4533 seconds
#
# Revision: 0
# Processed by: cddbd v1.5.1PL2 Copyright (c) Steve Scherf et al.
# Submitted via: audiograbber 1.83.01
#
DISCID=7211b319
DTITLE=Various Artist - Mountain Gospel - CD 3
DYEAR=1900
DGENRE=Country
TTITLE0=Ernest Phipps and his Holiness Quartet - I Want to Go Where Jesus Is
TTITLE1=Ernest Phipps and his Holiness Quartet - Do, Lord, Remember Me
TTITLE2=Ernest Phipps and his Holiness Quartet - Old Ship of Zion
TTITLE3=Ernest Phipps and his Holiness Quartet - Jesus Getting Us Ready for That 
TTITLE3=Great Day
TTITLE4=Ernest Phipps and his Holiness Quartet - Happy in Prison
TTITLE5=Ernest Phipps and his Holiness Quartet - Don't Grieve After Me
TTITLE6=Ernest Phipps and his Holiness Singers - If the Light Has Gone Out in You
TTITLE6=r Soul
TTITLE7=Ernest Phipps and his Holiness Singers - Went Up in the Clouds of Heaven
TTITLE8=Ernest Phipps and his Holiness Singers - I Know That Jesus Set Me Free
TTITLE9=Ernest Phipps and his Holiness Singers - Shine on Me
TTITLE10=Ernest Phipps and his Holiness Singers - Bright Tomorrow
TTITLE11=Ernest Phipps and his Holiness Singers - A Little Talk with Jesus
TTITLE12=Rev. Calbert and Sister Billie Holstein - Ring the Bells of Freedom
TTITLE13=Golden P. Harris - I'll Lead a Christian Life
TTITLE14=Elder G.P. Harris - My God, the Spring of All My Joys
TTITLE15=Kid Williams - When He Died, He Got a Home in Hell
TTITLE16=Kid Williams - I'm Glad I Counted the Cost
TTITLE17=Phil and Frank Crow - Abraham
TTITLE18=Phil Crow Trio - I'm a-Gittin' Ready to Go
TTITLE19=Ira and Eugene Yates - You'll Never Go to Heaven with Your Powder and Pain
TTITLE19=t
TTITLE20=Williams and Williams - Though Your Sins Be Scarlet
TTITLE21=McCravy Brothers - Dip Me in the Golden Sea
TTITLE22=McCravy Brothers - No Hidin' Place, Down There
TTITLE23=McCravy Brothers - Sometimes
TTITLE24=McCravy Brothers - Sunrise
EXTD=
EXTT0=
EXTT1=
EXTT2=
EXTT3=
EXTT4=
EXTT5=
EXTT6=
EXTT7=
EXTT8=
EXTT9=
EXTT10=
EXTT11=
EXTT12=
EXTT13=
EXTT14=
EXTT15=
EXTT16=
EXTT17=
EXTT18=
EXTT19=
EXTT20=
EXTT21=
EXTT22=
EXTT23=
EXTT24=
PLAYORDER=
